<?xml version="1.0" encoding="utf-8"?>
<!-- Generator: Adobe Adobe Illustrator 24.2.0, SVG Export Plug-In . SVG Version: 6.00 Build 0)  -->
<svg version="1.1" id="Layer_1" xmlns="http://www.w3.org/2000/svg" xmlns:xlink="http://www.w3.org/1999/xlink" x="0px" y="0px"
	 viewBox="0 0 100 100" style="enable-background:new 0 0 100 100;" xml:space="preserve" width="26" height="26">
<style type="text/css">
	.st0{fill:#FF5454;}
	.st1{opacity:0.7294;fill:#FFFFFF;}
	.st2{opacity:0.7294;}
	.st3{fill:#FFFFFF;}
</style>
<path class="st0" d="M20,70.3V29.7c0-5.36,4.34-9.7,9.7-9.7h40.6c5.36,0,9.7,4.34,9.7,9.7v40.6c0,5.36-4.34,9.7-9.7,9.7H29.7
	C24.34,80,20,75.66,20,70.3z"/>
<polygon class="st1" points="37.75,57.39 37.75,57.39 37.76,57.4 37.76,57.39 "/>
<path class="st1" d="M53.98,54.69c-0.09-1.65-0.26-3.3-0.49-4.94c-0.41-2.93-1.06-6.49-3.26-8.67c-2.18-2.16-5.76-1.83-7.23,0.95
	c-1.14,2.16-1.21,4.84-1.1,7.3c-0.06-0.21-0.11-0.43-0.17-0.64c-0.47-1.66-1.08-3.27-1.77-4.84c-0.61-1.4-1.24-3.01-2.42-4.02
	c-1.38-1.18-3.63-0.08-3.13,1.82c0.34,1.32,1.11,2.48,1.68,3.72c0.56,1.23,1.06,2.57,1.46,3.91c0.37,1.22,0.74,2.74,0.86,3.81
	c0.06,0.62,0.1,1.24,0.07,1.86c-0.03,0.69,0,0.54-0.22,1.3c-0.12,0.42-0.06,0.28-0.19,0.53c-0.04,0.07-0.45,0.7-0.27,0.47
	c-0.03,0.04-0.05,0.06-0.07,0.09c-0.01-0.01-0.02-0.03-0.03-0.04c-0.02-0.05-0.25-0.44-0.3-0.53c-0.02-0.04-0.03-0.05-0.03-0.06
	c-0.04-0.11-0.08-0.22-0.12-0.33c-0.12-0.36-0.23-0.72-0.32-1.09c-0.42-1.62-0.68-3.28-1.01-4.92c-0.36-1.82-0.77-3.63-1.35-5.39
	c-0.61-1.86-1.37-3.89-2.81-5.29c-1.49-1.45-3.55-1.69-5.33-0.58c-1.75,1.08-2.58,3.2-3.04,5.12c-0.63,2.6-0.69,5.36-0.57,8.02
	c0.1,2.13,0.25,4.35,0.77,6.43c0.61,2.46,4.37,1.42,3.8-1.05c-0.07-0.3-0.13-0.61-0.18-0.92c-0.01-0.08-0.05-0.33-0.06-0.39
	c-0.02-0.17-0.04-0.35-0.06-0.52c-0.11-1.04-0.17-2.09-0.2-3.14c-0.03-1.15-0.02-2.29,0.02-3.44c0.02-0.58,0.05-1.15,0.11-1.73
	c0.02-0.28,0.05-0.56,0.09-0.84c0.01-0.05,0.01-0.08,0.01-0.12c0.02-0.15,0.04-0.3,0.07-0.45c0.14-0.95,0.33-1.89,0.66-2.79
	c0.03-0.06,0.14-0.32,0.17-0.38c0.06-0.12,0.14-0.23,0.21-0.34c0,0.01,0.14-0.17,0.22-0.26c0,0,0.01-0.01,0.01-0.01
	c0.02-0.02,0.05-0.03,0.07-0.04c0.08,0.05,0.14,0.08,0.08,0.02c0.15,0.12,0.29,0.22,0-0.06c0.12,0.12,0.24,0.23,0.36,0.35
	c0.03,0.03,0.05,0.06,0.07,0.09c0.22,0.37,0.46,0.73,0.65,1.11c0.1,0.2,0.2,0.4,0.29,0.6c0.01,0.01,0.01,0.02,0.01,0.03
	c0.04,0.09,0.08,0.19,0.11,0.29c0.18,0.48,0.35,0.97,0.51,1.47c0.3,0.96,0.55,1.94,0.78,2.92c0.32,1.39,0.59,2.79,0.88,4.19
	c0.48,2.35,0.75,5.14,2.49,6.96c1.07,1.13,2.8,1.59,4.29,1.08c1.55-0.53,2.48-1.89,3.05-3.35c0.26-0.68,0.42-1.38,0.52-2.1
	c0.12,0.78,0.24,1.56,0.37,2.34c0.19,1.12,1.56,1.74,2.58,1.46c1.18-0.32,1.66-1.46,1.46-2.58c-0.12-0.67-0.23-1.34-0.33-2.02
	c-0.02-0.1-0.03-0.2-0.04-0.3c0.73,0.05,1.47,0.12,2.2,0.08c0.32-0.02,0.65-0.04,0.98-0.09c0.04,1.28-0.09,2.74,0.52,3.85
	c0.68,1.24,2.65,1.26,3.33,0C54.28,57.47,54.05,56,53.98,54.69z M46.17,50.6c-0.05-0.81-0.09-1.61-0.09-2.42
	c0-0.63,0.02-1.26,0.07-1.89c0.01-0.14,0.03-0.29,0.04-0.43c0-0.01,0-0.01,0-0.02c0.06-0.27,0.09-0.55,0.15-0.82
	c0.06-0.24,0.12-0.47,0.2-0.7c0.03-0.08,0.06-0.16,0.09-0.24c0.01-0.01,0.01-0.01,0.02-0.03c0.05-0.09,0.1-0.18,0.15-0.27
	c0.01-0.01,0.02-0.02,0.03-0.04c0.08,0.02,0.11,0.02,0.09,0c0.02,0,0.02,0,0.03,0.01c0.06,0.04,0.12,0.08,0.18,0.1c0,0,0,0,0,0
	c0.07,0.07,0.29,0.31,0.37,0.39c0.04,0.05,0.07,0.1,0.09,0.12c0.09,0.13,0.17,0.26,0.24,0.4c0.13,0.23,0.24,0.48,0.36,0.72
	c0.01,0.03,0.03,0.06,0.04,0.1c0.06,0.17,0.13,0.34,0.19,0.51c0.46,1.34,0.74,2.74,0.96,4.14c0.02,0.11,0.03,0.21,0.05,0.32
	c-0.12,0.04-0.24,0.07-0.36,0.1C48.1,50.76,47.13,50.64,46.17,50.6z"/>
<path class="st1" d="M37.64,57.38c0.02,0,0.04,0.01,0.05,0.01c0,0,0,0,0-0.01C37.68,57.38,37.67,57.38,37.64,57.38z"/>
<path class="st1" d="M37.69,57.39c-0.02,0.02-0.04,0.05-0.06,0.07c0,0,0,0,0,0C37.65,57.45,37.67,57.42,37.69,57.39
	C37.7,57.39,37.69,57.39,37.69,57.39z"/>
<polygon class="st1" points="37.7,57.39 37.7,57.39 37.7,57.38 37.7,57.39 "/>
<g class="st2">
	<path class="st3" d="M60.19,43.57c0,0-0.01-0.01-0.01-0.01c0,0-0.01,0-0.01,0c-0.02,0-0.04,0-0.07,0c0.01,0,0.01-0.01,0.02-0.01
		c0,0-0.01,0-0.01,0c0,0-0.01,0-0.02,0.01c0,0,0,0-0.01,0c0,0-0.01,0-0.01,0c0,0,0,0,0.01,0c-0.01,0-0.02,0.01-0.04,0.01
		c0,0,0,0,0,0c0.02-0.01,0.03-0.01,0.05-0.02C60.12,43.57,60.16,43.57,60.19,43.57z"/>
	<path class="st3" d="M77.04,54.55c-0.11-1.49-0.23-2.99-0.41-4.47c-0.35-2.92-0.69-6.48-2.71-8.81c-0.92-1.06-2.42-1.62-3.8-1.24
		c-1.21,0.33-2.11,1.32-2.62,2.42c-1.19,2.53-1.39,5.48-1.55,8.23c-0.13,2.3-0.08,4.6-0.08,6.91c0,0.11,0.02,0.2,0.03,0.3
		c-0.6-1.75-1.81-3.42-3.35-4.64c0.3-0.24,0.59-0.5,0.85-0.82c1.18-1.41,1.61-3.14,1.68-4.95c0.11-2.85-0.51-6.99-3.72-7.95
		c-2.96-0.89-5.16,1.46-6.13,3.97c-0.94,2.42-1.12,5.18-1.15,7.75c-0.03,2.32-0.03,4.89,0.6,7.14c0.72,2.59,4.77,1.49,4.04-1.11
		c-0.07-0.24-0.12-0.49-0.16-0.74c0-0.03-0.02-0.08-0.03-0.14c0-0.03,0-0.07-0.01-0.14c-0.01-0.12-0.03-0.24-0.04-0.36
		c-0.02-0.14-0.02-0.28-0.04-0.43c0.65,0.27,1.21,0.7,1.79,1.27c0.37,0.36,0.74,0.77,0.98,1.12c0.18,0.26,0.35,0.53,0.5,0.81
		c0.04,0.07,0.38,0.8,0.25,0.47c0.43,1.03,1.37,1.77,2.54,1.44c0.93-0.26,1.62-1.23,1.51-2.2c0.74,1.86,4.04,1.61,4.04-0.79
		c0-0.72-0.01-1.44-0.01-2.16c0.78,0.01,1.55,0.06,2.33,0.06c0.17,0,0.35-0.02,0.52-0.03c0.04,1.09,0.09,2.33,0.65,3.11
		c0.98,1.37,2.97,1.19,3.54-0.46C77.46,57.03,77.12,55.66,77.04,54.55z M60.87,48c-0.02,0.23-0.04,0.32-0.12,0.62
		c-0.04,0.18-0.1,0.35-0.15,0.52c-0.01,0.02-0.01,0.03-0.02,0.04c-0.04,0.09-0.09,0.18-0.13,0.27c-0.06,0.11-0.13,0.21-0.19,0.32
		c-0.02,0.03-0.03,0.05-0.04,0.07c-0.02,0.01-0.05,0.04-0.09,0.07c-0.11,0.1-0.22,0.21-0.33,0.31c-0.03,0.03-0.03,0.03-0.04,0.04
		c-0.05,0.03-0.09,0.07-0.14,0.1c-0.4,0.26-0.89,0.57-1.33,0.81c0.01-0.49,0.02-0.99,0.05-1.48c0.03-0.52,0.07-1.05,0.13-1.57
		c0.01-0.11,0.03-0.23,0.04-0.34c0-0.03,0-0.04,0.01-0.06c0-0.02,0.01-0.03,0.01-0.06c0.05-0.27,0.09-0.55,0.14-0.82
		c0.1-0.49,0.21-0.98,0.36-1.45c0.06-0.21,0.15-0.42,0.21-0.63c0-0.01,0-0.01,0-0.02c0.05-0.1,0.09-0.2,0.14-0.3
		c0.09-0.17,0.19-0.33,0.29-0.5c0.02-0.04,0.03-0.06,0.05-0.09c0.02-0.02,0.03-0.03,0.06-0.05c0.05-0.04,0.19-0.15,0.26-0.22
		c-0.01,0-0.03,0.01-0.04,0.01c0,0,0.01,0,0.01,0c0.01,0,0.02-0.01,0.04-0.01c0,0,0,0,0,0c0.01,0,0.02-0.01,0.03-0.01
		c-0.01,0-0.01,0-0.02,0c0,0,0,0,0,0c0.01,0,0.02,0,0.02,0c0.02-0.01,0.04-0.01,0.05-0.02c0,0,0,0,0.01,0c-0.01,0-0.01,0-0.02,0.01
		c0.01,0,0.02,0,0.03,0c0.01,0,0.01,0.01,0.02,0.01c0,0,0,0,0,0c0,0,0,0,0,0c0.01,0,0.01,0.01,0.02,0.01c0,0,0,0,0,0
		c0,0-0.01,0-0.01,0c0.01,0.01,0.02,0.02,0.03,0.03c0.01,0.01,0.01,0.02,0.02,0.03c0.04,0.07,0.08,0.14,0.12,0.21
		c0.03,0.04,0.06,0.11,0.09,0.17c0.02,0.06,0.05,0.12,0.06,0.17c0.09,0.28,0.17,0.56,0.23,0.85c0.02,0.12,0.04,0.24,0.07,0.35
		c0.01,0.03,0.01,0.04,0.01,0.06c0,0,0,0,0,0c0.04,0.32,0.06,0.64,0.08,0.95C60.92,46.93,60.92,47.47,60.87,48z M70.12,51.24
		c0.04-0.88,0.09-1.76,0.18-2.64c0.03-0.3,0.07-0.6,0.1-0.91c0-0.01,0-0.01,0-0.02c0-0.01,0-0.01,0-0.02
		c0.03-0.17,0.05-0.34,0.08-0.5c0.09-0.56,0.2-1.12,0.35-1.67c0.06-0.24,0.13-0.47,0.21-0.71c0.02-0.07,0.05-0.15,0.08-0.22
		c0.05,0.1,0.11,0.21,0.17,0.31c0,0,0,0,0,0.01c0.04,0.12,0.09,0.24,0.14,0.37c0.11,0.3,0.2,0.61,0.28,0.92
		c0.18,0.65,0.32,1.31,0.44,1.98c0.06,0.34,0.12,0.68,0.17,1.02c0.02,0.12,0.04,0.25,0.05,0.37c-0.01-0.09,0.03,0.25,0.05,0.37
		c0.06,0.46,0.1,0.93,0.15,1.39C71.75,51.31,70.93,51.25,70.12,51.24z"/>
	<path class="st3" d="M60.31,43.55C60.31,43.55,60.31,43.55,60.31,43.55c-0.01,0-0.03,0-0.04,0C60.28,43.55,60.29,43.55,60.31,43.55
		z"/>
</g>
</svg>
